<svg xmlns="http://www.w3.org/2000/svg" width="500" height="500" viewBox="0 0 500 500" version="1.1">
	<path d="M 0 250.002 L 0 500.004 250.250 499.752 L 500.500 499.500 500.752 249.750 L 501.004 0 250.502 0 L 0 0 0 250.002 M 0.492 250.500 C 0.492 388, 0.608 444.101, 0.750 375.170 C 0.892 306.238, 0.892 193.738, 0.750 125.170 C 0.608 56.601, 0.492 113, 0.492 250.500 M 241.403 64.506 C 239.002 66.907, 238.921 67.380, 239.484 75.756 C 239.808 80.565, 240.286 86.188, 240.548 88.250 C 240.810 90.313, 240.813 92, 240.556 92 C 240.299 92, 238.431 90.875, 236.405 89.500 C 226.335 82.666, 217.636 90.150, 214.915 107.987 C 211.320 131.547, 222.262 150.534, 236.906 146.146 C 238.949 145.534, 241.684 143.901, 242.984 142.517 C 246.082 139.220, 247 139.342, 247 143.050 C 247 150.729, 254.222 155.927, 260.617 152.849 C 263.328 151.544, 263.497 151.105, 263.452 145.481 C 263.392 137.888, 258.317 80.481, 257.001 72.500 C 256.457 69.200, 256.009 66.195, 256.006 65.821 C 255.988 63.783, 252.433 62, 248.383 62 C 244.941 62, 243.331 62.578, 241.403 64.506 M 186.631 90.635 C 184.009 92.055, 183.803 92.560, 184.246 96.486 L 184.730 100.783 181.615 99.867 C 172.602 97.217, 162.088 103.142, 158.955 112.636 C 157.276 117.725, 158.280 130.950, 160.958 139 C 165.054 151.311, 172.027 158, 180.766 158 C 187.087 158, 192.220 152.563, 194.457 143.500 L 195.197 140.500 196.871 145 C 198.288 148.810, 199.001 149.543, 201.522 149.783 C 203.162 149.939, 206.522 149.040, 209 147.783 C 214.999 144.740, 215.202 142.137, 210.439 129.355 C 203.092 109.639, 195.662 92.460, 193.742 90.750 C 191.369 88.635, 190.352 88.618, 186.631 90.635 M 288.530 91.066 C 281.681 92.211, 279.241 93.741, 277.931 97.708 C 276.319 102.595, 277.497 105.774, 283.125 111.726 C 288.895 117.827, 291.001 122.237, 290.998 128.218 C 290.997 133.166, 288.190 139.500, 286 139.500 C 284.766 139.500, 284.536 137.957, 284.702 130.802 C 284.926 121.183, 285.321 121.739, 277.382 120.507 C 271.613 119.613, 268.011 122.719, 267.279 129.221 C 265.758 142.711, 273.780 151.296, 288 151.396 C 295.967 151.452, 299.963 149.525, 303.754 143.795 C 306.186 140.120, 306.497 138.723, 306.478 131.573 C 306.457 124.067, 306.158 122.922, 302.228 115.272 C 299.902 110.747, 298 106.636, 298 106.136 C 298 105.636, 299.988 104.929, 302.418 104.565 C 308.067 103.717, 309.426 102.094, 308.529 97.261 C 307.437 91.381, 305.589 89.981, 299.095 90.118 C 296.018 90.182, 291.264 90.609, 288.530 91.066 M 372.500 98.010 C 369.457 99.157, 368.174 100.950, 355.039 122.425 C 336.678 152.444, 333.824 158.908, 336.009 165.528 C 337.280 169.378, 343.115 174.059, 352.539 178.786 C 365.794 185.436, 371.002 183.357, 381.978 167.033 C 390.242 154.742, 407.528 125.794, 408.826 122.070 C 409.899 118.991, 409.809 118.835, 405.284 115.965 C 398.285 111.526, 396.969 111.334, 394.356 114.372 C 393.113 115.818, 386.217 126.893, 379.031 138.985 C 368.661 156.436, 365.446 161.101, 363.443 161.604 C 360.268 162.400, 357 159.675, 357 156.230 C 357 154.824, 361.635 146.427, 367.817 136.635 C 383.515 111.766, 386 107.471, 386 105.201 C 386 101.836, 376.199 96.615, 372.500 98.010 M 233.035 107.934 C 231.712 110.406, 231.691 122.056, 233.003 125.508 C 235.228 131.361, 240.995 124.637, 240.998 116.184 C 241.001 108.176, 235.793 102.780, 233.035 107.934 M 174.628 116.528 C 173.031 120.688, 175.264 130.425, 178.681 134.200 C 185.064 141.254, 188.592 127.645, 182.667 118.823 C 180.150 115.076, 175.675 113.798, 174.628 116.528 M 121.859 121.158 C 119.856 122.319, 117.213 125.055, 115.986 127.239 C 114.067 130.654, 113.817 132.285, 114.202 138.924 C 114.571 145.301, 115.306 147.969, 118.437 154.307 C 122.942 163.425, 128.511 170.043, 134.757 173.703 C 142.694 178.355, 154.111 176.984, 161.879 170.448 C 164.569 168.185, 165 167.165, 165 163.059 C 165 159.756, 164.299 157.254, 162.716 154.898 C 159.279 149.786, 156.952 150.012, 151.950 155.944 C 149.605 158.725, 146.888 161, 145.912 161 C 143.724 161, 139.612 155.454, 140.358 153.510 C 140.657 152.729, 142.837 151.118, 145.201 149.929 C 147.566 148.740, 150.287 147.075, 151.250 146.229 C 156.229 141.852, 149.554 128.478, 139.074 121.832 C 133.520 118.310, 127.197 118.062, 121.859 121.158 M 130 136.309 C 130 140.737, 132.039 143.440, 134.734 142.584 C 137.946 141.565, 138.162 139.345, 135.369 136.027 C 131.968 131.985, 130 132.089, 130 136.309 M 72.250 137.820 C 69.800 139.973, 68 142.439, 68 143.642 C 68 144.951, 71.359 149.024, 77 154.555 C 81.950 159.409, 86 164.110, 86 165.003 C 86 167.631, 80.498 172.293, 78.242 171.577 C 77.171 171.237, 72.402 166.918, 67.644 161.980 C 62.885 157.041, 58.522 153, 57.946 153 C 53.675 153, 46.007 160.757, 45.991 165.094 C 45.984 166.915, 51.953 173.416, 70.514 191.808 C 84.007 205.177, 96.479 216.718, 98.230 217.455 C 100.466 218.395, 102.170 218.508, 103.957 217.835 C 107.397 216.539, 113 211.007, 113 208.906 C 113 207.970, 107.825 202.378, 101.500 196.479 C 95.175 190.579, 90 184.997, 90 184.073 C 90 182.026, 96.023 176, 98.068 176 C 98.879 176, 103.582 180.082, 108.521 185.072 C 121.676 198.362, 124.020 199.158, 129.991 192.357 C 133.050 188.874, 133.075 188.763, 131.377 186.155 C 125.892 177.733, 81.252 133.968, 78.222 134.043 C 77.275 134.066, 74.588 135.766, 72.250 137.820 M 417 149.801 C 415.367 150.353, 389.765 173.528, 373.197 189.453 C 362.153 200.068, 359.491 203.834, 360.418 207.531 C 361.329 211.158, 365.916 216, 368.443 216 C 369.930 216, 374.622 212.389, 382.104 205.485 L 393.500 194.971 394.054 198.250 C 395.309 205.675, 400.782 211.001, 407.154 210.999 C 415.500 210.997, 431.253 199.717, 437.068 189.579 C 439.192 185.876, 439.984 183.171, 439.991 179.595 C 439.999 175.161, 439.613 174.322, 435.964 170.851 C 433.280 168.297, 430.637 166.806, 428.070 166.395 L 424.211 165.778 426.583 162.282 C 429.236 158.373, 428.935 157.119, 424.336 152.897 C 421.078 149.906, 419.127 149.083, 417 149.801 M 411.217 178.561 C 404.375 183.353, 404.499 194.346, 411.376 192.621 C 414.425 191.855, 420 185.571, 420 182.899 C 420 177.478, 415.756 175.382, 411.217 178.561 M 230 214.871 C 193.213 222.921, 164.317 250.682, 154.400 287.500 C 151.527 298.164, 151.755 325.453, 154.809 336.500 C 162.879 365.696, 184.637 390.729, 211.781 402.048 C 224.994 407.557, 233.973 409.298, 249.500 409.361 C 263.640 409.418, 268.636 408.691, 281 404.777 C 313.421 394.512, 339.446 365.535, 346.542 331.800 C 348.446 322.750, 348.453 300.285, 346.555 291.264 C 338.936 255.042, 312.213 226.557, 276.248 216.320 C 264.054 212.849, 242.346 212.169, 230 214.871 M 236.258 232.044 C 211.450 236.481, 189.576 252.924, 178.448 275.500 C 172.517 287.531, 170.864 294.214, 170.280 308.500 C 169.878 318.347, 170.158 322.042, 171.840 329.097 C 184.056 380.334, 239.564 406.349, 286.500 382.834 C 295.100 378.526, 306.031 369.891, 311.985 362.702 C 318.296 355.084, 326.214 339.022, 328.546 329.110 C 330.986 318.737, 330.759 301.982, 328.036 291.500 C 320.896 264.012, 299.273 241.828, 271.973 233.983 C 263.439 231.531, 244.787 230.518, 236.258 232.044 M 205.667 275.667 C 205.300 276.033, 205 284.133, 205 293.667 L 205 311 214 311 L 223 311 223 293 L 223 275 214.667 275 C 210.083 275, 206.033 275.300, 205.667 275.667 M 277 292.961 L 277 311 286.023 311 L 295.046 311 294.773 293.250 L 294.500 275.500 285.750 275.211 L 277 274.922 277 292.961 M 273.012 329.959 C 269.282 342.486, 264.469 346.045, 250.255 346.788 L 241 347.273 241 356.265 L 241 365.257 251.750 364.764 C 269.874 363.934, 280.750 357.711, 286.871 344.668 C 289.758 338.516, 292.647 328.314, 291.755 327.422 C 291.201 326.867, 277.469 323, 276.055 323 C 275.521 323, 274.152 326.132, 273.012 329.959" stroke="none" fill="black" fill-rule="evenodd"/>
</svg>