<svg xmlns="http://www.w3.org/2000/svg" width="484" height="483" viewBox="0 0 484 483" version="1.1">
	<path d="M 7.321 1.613 C 0.762 4.848, 0.995 1.694, 1.050 86.651 L 1.100 163.500 4.392 154.439 C 21.900 106.241, 74.446 77.006, 143.576 77.001 C 223.223 76.995, 279.421 115.388, 290.413 177.318 C 291.212 181.818, 292.153 188.088, 292.505 191.250 L 293.144 197 240.072 197 L 187 197 187 194.089 C 187 189.176, 183.296 178.947, 179.544 173.500 C 170.470 160.325, 150.818 153.012, 132.233 155.896 C 122.810 157.358, 116.969 160.014, 111.099 165.505 C 103.822 172.311, 101.584 178.161, 101.538 190.500 C 101.507 198.748, 101.886 201.335, 103.702 205.268 C 109.788 218.448, 125.692 227.305, 171.500 243.026 C 211.826 256.865, 242.209 270.146, 254.770 279.424 C 274.728 294.166, 289.314 314.057, 294.422 333.500 C 297.372 344.727, 298.527 361.767, 297.222 374.819 C 292.395 423.093, 261.017 460.316, 211 477.101 C 200.658 480.572, 196.601 481.416, 187.500 481.994 C 181.450 482.378, 243.325 482.761, 325 482.845 C 464.555 482.988, 473.711 482.892, 477 481.248 C 479 480.249, 481.251 478, 482.252 476 C 483.908 472.691, 483.990 459.803, 483.752 239.673 L 483.500 6.846 479.765 3.423 L 476.029 0 243.265 0.023 C 33.940 0.043, 10.180 0.203, 7.321 1.613 M 1.073 295.241 L 1 361.981 50.691 362.241 L 100.383 362.500 101.673 369.491 C 104.252 383.466, 112.854 395.852, 123.853 401.425 C 131.575 405.339, 139.384 407.002, 149.960 406.985 C 178.443 406.941, 195.155 393.704, 195.393 371 C 195.514 359.410, 193.212 353.976, 184.587 345.500 C 173.039 334.150, 161.883 329.138, 115.500 314.459 C 79.548 303.081, 54.239 292.166, 40.697 282.199 C 22.846 269.061, 9.464 251.804, 2.931 233.500 C 1.185 228.608, 1.145 229.939, 1.073 295.241 M 318.200 309.058 C 308.105 314.103, 302.969 321.970, 302.243 333.500 C 301.895 339.030, 302.261 341.714, 303.985 346.281 C 306.262 352.315, 310.450 356.771, 337.133 381.553 C 342.431 386.474, 346.819 390.734, 346.883 391.021 C 346.947 391.307, 338.206 399.797, 327.459 409.886 C 304.009 431.898, 302.528 434.104, 302.528 447 C 302.528 454.276, 302.913 456.233, 305.200 460.590 C 310.515 470.716, 319.932 476.376, 331.500 476.399 C 342.874 476.422, 346.362 474.209, 369.762 452.124 C 380.906 441.606, 390.413 433, 390.888 433 C 391.363 433, 400.835 441.556, 411.936 452.014 C 435.474 474.187, 438.753 476.288, 450 476.404 C 456.271 476.469, 458.431 476.026, 463.182 473.701 C 473.886 468.461, 479.445 459.354, 479.479 447 C 479.514 434.570, 477.522 431.625, 454.475 410.028 C 443.725 399.954, 435.058 391.375, 435.215 390.963 C 435.372 390.551, 444.202 381.972, 454.838 371.899 C 477.795 350.159, 479.413 347.760, 479.392 335.500 C 479.376 325.982, 477.877 321.992, 471.871 315.476 C 466.046 309.157, 461.055 306.785, 452.387 306.219 C 444.704 305.717, 439.542 306.916, 434.393 310.399 C 432.684 311.554, 422.405 320.825, 411.549 331 C 400.694 341.175, 391.447 349.500, 391 349.500 C 390.553 349.500, 381.351 341.175, 370.551 331 C 347.069 308.877, 342.584 306, 331.572 306 C 325.484 306, 323.337 306.491, 318.200 309.058 M 1.275 435 C 1.479 470.865, 1.662 474.739, 3.264 477.096 C 4.234 478.524, 6.168 480.211, 7.561 480.846 C 9.368 481.669, 23.905 481.986, 58.297 481.951 L 106.500 481.902 97.500 479.548 C 61.193 470.052, 34.774 453.026, 16.779 427.525 C 10.848 419.122, 7.653 413.050, 3.872 403 L 1.050 395.500 1.275 435" stroke="none" fill="black" fill-rule="evenodd"/>
</svg>